<?xml version="1.0" encoding="UTF-8" standalone="no"?>
<svg
   version="1.1"
   id="Layer_1"
   x="0px"
   y="0px"
   width="840"
   height="350"
   viewBox="0 0 840.00001 350"
   xml:space="preserve"
   sodipodi:docname="elisa-horizontal-color.svg"
   inkscape:export-filename="elisa-horizontal-color-bg.svg"
   inkscape:export-xdpi="96"
   inkscape:export-ydpi="96"
   inkscape:version="1.4 (e7c3feb100, 2024-10-09)"
   xmlns:inkscape="http://www.inkscape.org/namespaces/inkscape"
   xmlns:sodipodi="http://sodipodi.sourceforge.net/DTD/sodipodi-0.dtd"
   xmlns="http://www.w3.org/2000/svg"
   xmlns:svg="http://www.w3.org/2000/svg"><defs
   id="defs43" /><sodipodi:namedview
   id="namedview43"
   pagecolor="#ffffff"
   bordercolor="#000000"
   borderopacity="0.25"
   inkscape:showpageshadow="2"
   inkscape:pageopacity="0.0"
   inkscape:pagecheckerboard="true"
   inkscape:deskcolor="#d1d1d1"
   inkscape:export-bgcolor="#ffffffff"
   inkscape:zoom="1.0516197"
   inkscape:cx="484.01528"
   inkscape:cy="444.07688"
   inkscape:window-width="2490"
   inkscape:window-height="1371"
   inkscape:window-x="0"
   inkscape:window-y="0"
   inkscape:window-maximized="1"
   inkscape:current-layer="Layer_1"><inkscape:page
     x="0"
     y="0"
     width="840"
     height="350"
     id="page2"
     margin="0"
     bleed="0" /></sodipodi:namedview> <style
   type="text/css"
   id="style1"> .st0{fill:#77C046;} .st1{fill:#333333;} .st2{fill:#FFFFFF;} </style> <rect
   style="fill:#ffffff;stroke:#ffffff;stroke-width:1.33333;stroke-miterlimit:10"
   id="rect1"
   width="840"
   height="350"
   x="0"
   y="0"
   rx="50"
   ry="50" /><path
   class="st0"
   d="m 268.7,89.637491 -99.9,-57.6 c -9.8,-5.7 -22.1,-5.7 -31.9,0 l -99.799996,57.6 c -9.9,5.7 -16,16.299999 -16,27.699999 v 115.3 c 0,11.4 6.1,21.9 16,27.6 L 137,317.93749 c 4.8,2.8 10.3,4.3 16,4.3 5.6,0 11.1,-1.5 16,-4.3 l 99.9,-57.7 c 9.8,-5.7 16,-16.3 16,-27.6 v -115.3 c -0.2,-11.4 -6.4,-21.999999 -16.2,-27.699999 z m 0.6,27.699999 v 115.3 c 0,5.9 -3.2,11.4 -8.3,14.4 l -99.9,57.7 c -5.1,3 -11.5,3 -16.6,0 l -99.899996,-57.7 c -5.1,-3 -8.3,-8.5 -8.3,-14.4 v -115.3 c 0,-5.9 3.2,-11.4 8.3,-14.4 L 144.5,45.237491 c 2.5,-1.4 5.4,-2.2 8.3,-2.2 2.9,0 5.8,0.8 8.3,2.2 L 261,102.93749 c 5.2,2.9 8.3,8.4 8.3,14.4 z"
   id="path1" /><g
   id="g4"
   transform="translate(21.100004,27.737491)"> <g
   id="g3"> <polygon
   class="st0"
   points="89.5,209 120.7,238.5 174.1,188 162.6,175.8 120.7,215.5 101,196.8 "
   id="polygon1" /> <polygon
   class="st0"
   points="89.5,149 120.7,178.5 174.1,127.9 162.6,115.8 120.7,155.5 101,136.8 "
   id="polygon2" /> <polygon
   class="st0"
   points="120.7,95.5 101,76.8 89.5,88.9 120.7,118.5 174.1,67.9 162.6,55.8 "
   id="polygon3" /> </g> </g><g
   id="g9"
   transform="translate(21.100004,27.737491)"> <g
   id="g8"> <path
   class="st1"
   d="m 351.1,25.4 c -0.4,0.4 -0.8,0.5 -1.3,0.5 h -32.9 c -0.5,0 -0.8,0.3 -0.8,0.8 v 24.8 c 0,0.5 0.3,0.8 0.8,0.8 h 18.9 c 0.5,0 1,0.2 1.3,0.6 0.4,0.4 0.6,0.8 0.6,1.3 v 15.3 c 0,0.5 -0.2,1 -0.6,1.3 -0.4,0.4 -0.8,0.6 -1.3,0.6 h -18.9 c -0.5,0 -0.8,0.3 -0.8,0.8 v 25 c 0,0.5 0.3,0.8 0.8,0.8 h 32.9 c 0.5,0 1,0.2 1.3,0.5 0.4,0.4 0.6,0.8 0.6,1.3 v 15.3 c 0,0.5 -0.2,1 -0.6,1.3 -0.4,0.4 -0.8,0.6 -1.3,0.6 h -53.9 c -0.5,0 -1,-0.2 -1.3,-0.6 -0.4,-0.4 -0.5,-0.8 -0.5,-1.3 V 8.8 c 0,-0.5 0.2,-1 0.5,-1.3 C 295,7.1 295.4,7 295.9,7 h 53.9 c 0.5,0 1,0.2 1.3,0.5 0.4,0.4 0.6,0.8 0.6,1.3 V 24 c 0,0.5 -0.2,1 -0.6,1.4 z"
   id="path4" /> <path
   class="st1"
   d="m 363.4,116.4 c -0.4,-0.4 -0.5,-0.8 -0.5,-1.3 V 8.8 c 0,-0.5 0.2,-1 0.5,-1.3 0.4,-0.4 0.8,-0.5 1.3,-0.5 h 18.4 c 0.5,0 1,0.2 1.3,0.5 0.4,0.4 0.6,0.8 0.6,1.3 v 88.4 c 0,0.5 0.3,0.8 0.8,0.8 h 33 c 0.5,0 1,0.2 1.3,0.5 0.4,0.4 0.6,0.8 0.6,1.3 v 15.3 c 0,0.5 -0.2,1 -0.6,1.3 -0.4,0.4 -0.8,0.6 -1.3,0.6 h -54.1 c -0.5,0 -0.9,-0.2 -1.3,-0.6 z"
   id="path5" /> <path
   class="st1"
   d="m 430.4,116.4 c -0.4,-0.4 -0.5,-0.8 -0.5,-1.3 V 8.8 c 0,-0.5 0.2,-1 0.5,-1.3 0.4,-0.4 0.8,-0.5 1.3,-0.5 h 18.4 c 0.5,0 1,0.2 1.3,0.5 0.4,0.4 0.6,0.8 0.6,1.3 v 106.3 c 0,0.5 -0.2,1 -0.6,1.3 -0.4,0.4 -0.8,0.6 -1.3,0.6 h -18.4 c -0.5,0 -1,-0.2 -1.3,-0.6 z"
   id="path6" /> <path
   class="st1"
   d="m 478.3,114.6 c -4.6,-2.4 -8.2,-5.8 -10.7,-10.1 -2.5,-4.3 -3.8,-9.4 -3.8,-15 v -4.6 c 0,-0.5 0.2,-1 0.5,-1.3 0.4,-0.4 0.8,-0.5 1.3,-0.5 h 18.1 c 0.5,0 1,0.2 1.3,0.5 0.4,0.4 0.5,0.8 0.5,1.3 v 3.5 c 0,3.3 0.8,5.9 2.5,7.9 1.7,2 3.8,3 6.3,3 2.5,0 4.6,-0.9 6.3,-2.8 1.7,-1.9 2.5,-4.3 2.5,-7.4 0,-3.1 -1,-5.8 -3.1,-8.1 -2.1,-2.3 -6.2,-5.6 -12.3,-10 -5.2,-3.8 -9.5,-7.1 -12.7,-10.1 -3.2,-2.9 -6,-6.6 -8.3,-10.9 -2.3,-4.3 -3.5,-9.3 -3.5,-14.9 0,-8.9 2.8,-16 8.3,-21.4 5.6,-5.3 12.9,-8 22,-8 9.2,0 16.6,2.8 22.3,8.3 5.6,5.6 8.4,12.8 8.4,21.9 v 3.8 c 0,0.5 -0.2,1 -0.5,1.3 -0.4,0.4 -0.8,0.6 -1.3,0.6 h -18.1 c -0.5,0 -1,-0.2 -1.3,-0.6 -0.4,-0.4 -0.5,-0.8 -0.5,-1.3 v -4.2 c 0,-3.2 -0.8,-5.8 -2.4,-7.8 -1.6,-1.9 -3.8,-2.9 -6.4,-2.9 -2.5,0 -4.6,0.9 -6.1,2.8 -1.6,1.8 -2.4,4.4 -2.4,7.6 0,3.1 1,5.9 3,8.3 2,2.4 5.9,5.8 11.8,10.1 6.5,4.8 11.4,8.7 14.7,11.7 3.3,3 5.9,6.3 7.7,9.9 1.8,3.6 2.8,7.9 2.8,13 0,9.2 -2.8,16.6 -8.5,22 -5.7,5.5 -13.1,8.2 -22.3,8.2 -6.2,-0.2 -11.5,-1.4 -16.1,-3.8 z"
   id="path7" /> <path
   class="st1"
   d="m 580,115.2 -2.5,-15.1 c 0,-0.5 -0.3,-0.8 -0.9,-0.8 h -20 c -0.6,0 -0.9,0.3 -0.9,0.8 l -2.5,15.1 c -0.1,1.2 -0.8,1.7 -2,1.7 h -18.4 c -1.4,0 -1.9,-0.7 -1.6,-2 l 23,-106.3 c 0.2,-1.2 0.9,-1.7 2,-1.7 h 21.2 c 1.2,0 1.8,0.6 2,1.7 l 23,106.3 0.2,0.6 c 0,0.9 -0.6,1.4 -1.7,1.4 H 582 c -1.2,0.1 -1.9,-0.5 -2,-1.7 z m -20.6,-33 h 14.2 c 0.5,0 0.7,-0.3 0.6,-0.8 l -7.4,-42.9 c -0.1,-0.3 -0.3,-0.5 -0.5,-0.5 -0.2,0 -0.4,0.2 -0.5,0.5 l -7.1,42.9 c 0.1,0.5 0.3,0.8 0.7,0.8 z"
   id="path8" /> </g> </g><g
   id="g42"
   transform="translate(21.100004,27.737491)"> <g
   id="g41"> <path
   class="st1"
   d="m 320.1,149.1 h -17.8 c -0.2,0 -0.3,0.1 -0.3,0.3 v 19.1 c 0,0.2 0.1,0.3 0.3,0.3 h 11.2 c 0.5,0 0.8,0.3 0.8,0.8 v 3.3 c 0,0.5 -0.3,0.8 -0.8,0.8 h -11.2 c -0.2,0 -0.3,0.1 -0.3,0.3 v 19.1 c 0,0.2 0.1,0.3 0.3,0.3 h 17.8 c 0.5,0 0.8,0.3 0.8,0.8 v 3.2 c 0,0.5 -0.3,0.8 -0.8,0.8 h -22.8 c -0.5,0 -0.8,-0.3 -0.8,-0.8 v -52.2 c 0,-0.5 0.3,-0.8 0.8,-0.8 h 22.8 c 0.5,0 0.8,0.3 0.8,0.8 v 3.2 c 0,0.5 -0.2,0.7 -0.8,0.7 z"
   id="path9" /> <path
   class="st1"
   d="m 349.8,162 c 1.7,2.2 2.6,5.1 2.6,9 v 26.4 c 0,0.5 -0.3,0.8 -0.8,0.8 h -3.9 c -0.5,0 -0.8,-0.3 -0.8,-0.8 v -26 c 0,-2.5 -0.6,-4.5 -1.7,-5.8 -1.1,-1.4 -2.6,-2.1 -4.6,-2.1 -2,0 -3.6,0.7 -4.8,2.2 -1.2,1.5 -1.7,3.5 -1.7,6.1 v 25.6 c 0,0.5 -0.3,0.8 -0.8,0.8 h -3.9 c -0.5,0 -0.8,-0.3 -0.8,-0.8 v -37.3 c 0,-0.5 0.3,-0.8 0.8,-0.8 h 3.9 c 0.5,0 0.8,0.3 0.8,0.8 v 2.5 c 0,0.1 0.1,0.2 0.2,0.2 0.1,0.1 0.2,0 0.2,-0.2 0.9,-1.3 2.1,-2.2 3.5,-2.9 1.4,-0.6 2.9,-1 4.5,-1 3.1,0.1 5.5,1.1 7.3,3.3 z"
   id="path10" /> <path
   class="st1"
   d="m 381.2,162.2 c 2.2,2.3 3.2,5.4 3.2,9.3 v 25.9 c 0,0.5 -0.3,0.8 -0.8,0.8 h -3.9 c -0.5,0 -0.8,-0.3 -0.8,-0.8 v -2.3 c 0,-0.1 0,-0.2 -0.1,-0.2 -0.1,0 -0.2,0 -0.3,0.1 -1.9,2.5 -4.7,3.8 -8.5,3.8 -2.8,0 -5.3,-0.8 -7.3,-2.4 -2.1,-1.6 -3.1,-4.5 -3.1,-8.6 0,-4.4 1.3,-7.5 3.8,-9.6 2.5,-2 5.8,-3 9.9,-3 h 5.4 c 0.2,0 0.3,-0.1 0.3,-0.3 v -3 c 0,-2.6 -0.6,-4.6 -1.8,-6.1 -1.2,-1.5 -2.8,-2.3 -4.8,-2.3 -1.5,0 -2.9,0.5 -4,1.5 -1.1,1 -1.8,2.3 -2,3.9 0,0.5 -0.3,0.8 -0.8,0.8 l -4.3,-0.1 c -0.3,0 -0.4,-0.1 -0.6,-0.2 -0.1,-0.2 -0.2,-0.3 -0.1,-0.5 0.3,-3 1.5,-5.5 3.7,-7.3 2.2,-1.9 4.9,-2.8 8.1,-2.8 3.8,-0.1 6.7,1 8.8,3.4 z m -4.5,29.8 c 1.5,-1.4 2.3,-3.2 2.3,-5.6 v -6.5 c 0,-0.2 -0.1,-0.3 -0.3,-0.3 h -5.5 c -2.5,0 -4.4,0.7 -5.8,2 -1.4,1.3 -2.2,3.2 -2.2,5.8 0,2.3 0.5,3.9 1.7,5 1.1,1.1 2.5,1.7 4.3,1.7 2.1,-0.1 4,-0.8 5.5,-2.1 z"
   id="path11" /> <path
   class="st1"
   d="m 414,161.9 c 2,2.1 3,5 3,8.6 V 187 c 0,3.5 -1,6.3 -2.9,8.5 -1.9,2.2 -4.6,3.3 -7.8,3.3 -1.4,0 -2.7,-0.3 -4,-0.8 -1.3,-0.5 -2.4,-1.3 -3.4,-2.4 -0.1,-0.1 -0.2,-0.1 -0.3,-0.1 -0.1,0.1 -0.1,0.1 -0.1,0.2 v 1.7 c 0,0.5 -0.3,0.8 -0.8,0.8 h -3.9 c -0.5,0 -0.8,-0.3 -0.8,-0.8 v -52.2 c 0,-0.5 0.3,-0.8 0.8,-0.8 h 3.9 c 0.5,0 0.8,0.3 0.8,0.8 v 16.6 c 0,0.1 0.1,0.2 0.2,0.2 0.1,0.1 0.2,0 0.3,-0.2 0.9,-1 2,-1.8 3.3,-2.3 1.3,-0.5 2.6,-0.8 4,-0.8 3.1,0 5.7,1 7.7,3.2 z m -4.4,3.6 c -1.2,-1.4 -2.8,-2 -4.8,-2 -1.9,0 -3.4,0.7 -4.6,2 -1.2,1.4 -1.8,3.1 -1.8,5.3 v 15.9 c 0,2.2 0.6,3.9 1.8,5.3 1.2,1.4 2.7,2 4.6,2 2,0 3.6,-0.7 4.8,-2 1.2,-1.4 1.8,-3.1 1.8,-5.3 v -15.9 c 0.1,-2.2 -0.5,-4 -1.8,-5.3 z"
   id="path12" /> <path
   class="st1"
   d="m 425,197.4 v -52.2 c 0,-0.5 0.3,-0.8 0.8,-0.8 h 3.9 c 0.5,0 0.8,0.3 0.8,0.8 v 52.2 c 0,0.5 -0.3,0.8 -0.8,0.8 h -3.9 c -0.5,0 -0.8,-0.3 -0.8,-0.8 z"
   id="path13" /> <path
   class="st1"
   d="m 439.6,151 c -0.8,-0.8 -1.2,-1.8 -1.2,-3.1 0,-1.3 0.4,-2.3 1.2,-3.1 0.8,-0.8 1.8,-1.2 3.1,-1.2 1.2,0 2.2,0.4 3,1.2 0.8,0.8 1.2,1.8 1.2,3.1 0,1.2 -0.4,2.3 -1.2,3.1 -0.8,0.8 -1.8,1.2 -3,1.2 -1.3,0 -2.3,-0.4 -3.1,-1.2 z m 0.4,46.4 v -37.3 c 0,-0.5 0.3,-0.8 0.8,-0.8 h 3.9 c 0.5,0 0.8,0.3 0.8,0.8 v 37.3 c 0,0.5 -0.3,0.8 -0.8,0.8 h -3.9 c -0.6,0 -0.8,-0.3 -0.8,-0.8 z"
   id="path14" /> <path
   class="st1"
   d="m 476.4,162 c 1.7,2.2 2.6,5.1 2.6,9 v 26.4 c 0,0.5 -0.3,0.8 -0.8,0.8 h -3.9 c -0.5,0 -0.8,-0.3 -0.8,-0.8 v -26 c 0,-2.5 -0.6,-4.5 -1.7,-5.8 -1.1,-1.4 -2.6,-2.1 -4.6,-2.1 -2,0 -3.6,0.7 -4.8,2.2 -1.2,1.5 -1.7,3.5 -1.7,6.1 v 25.6 c 0,0.5 -0.3,0.8 -0.8,0.8 H 456 c -0.5,0 -0.8,-0.3 -0.8,-0.8 v -37.3 c 0,-0.5 0.3,-0.8 0.8,-0.8 h 3.9 c 0.5,0 0.8,0.3 0.8,0.8 v 2.5 c 0,0.1 0.1,0.2 0.2,0.2 0.1,0.1 0.2,0 0.2,-0.2 0.9,-1.3 2.1,-2.2 3.5,-2.9 1.4,-0.6 2.9,-1 4.5,-1 3.2,0.1 5.6,1.1 7.3,3.3 z"
   id="path15" /> <path
   class="st1"
   d="m 506.4,159.3 h 3.9 c 0.5,0 0.8,0.3 0.8,0.8 v 37.3 c 0,5.5 -1.3,9.6 -3.8,12.5 -2.5,2.8 -6.8,4.1 -12.7,3.9 -0.5,-0.1 -0.8,-0.3 -0.8,-0.8 v -3.3 c 0,-0.5 0.3,-0.8 0.8,-0.8 4.1,0.1 7,-0.8 8.6,-2.8 1.6,-2 2.5,-5 2.5,-9.1 v -2.3 c 0,-0.1 0,-0.2 -0.1,-0.2 -0.1,-0.1 -0.2,0 -0.3,0.1 -0.9,1.3 -2,2.3 -3.3,2.9 -1.4,0.7 -2.8,1 -4.3,1 -3.2,0 -5.8,-1.1 -7.6,-3.2 -1.9,-2.2 -2.8,-5 -2.8,-8.5 v -16.2 c 0,-3.6 0.9,-6.4 2.8,-8.6 1.9,-2.1 4.4,-3.2 7.6,-3.2 1.5,0 3,0.3 4.3,1 1.4,0.6 2.5,1.6 3.3,2.9 0.1,0.2 0.2,0.2 0.3,0.2 0.1,0 0.1,-0.1 0.1,-0.3 v -2.4 c -0.1,-0.7 0.2,-0.9 0.7,-0.9 z m -2.6,32.3 c 1.2,-1.4 1.8,-3.1 1.8,-5.3 v -15.5 c 0,-2.2 -0.6,-4 -1.8,-5.3 -1.2,-1.4 -2.8,-2 -4.6,-2 -1.9,0 -3.5,0.7 -4.8,2 -1.2,1.4 -1.8,3.1 -1.8,5.3 v 15.5 c 0,2.2 0.6,3.9 1.8,5.3 1.2,1.4 2.8,2 4.8,2 1.8,0 3.4,-0.6 4.6,-2 z"
   id="path16" /> <path
   class="st0"
   d="m 534.8,197.9 c -0.2,-0.2 -0.3,-0.4 -0.3,-0.7 v -51.9 c 0,-0.3 0.1,-0.5 0.3,-0.7 0.2,-0.2 0.4,-0.3 0.7,-0.3 h 7.1 c 0.3,0 0.5,0.1 0.7,0.3 0.2,0.2 0.3,0.4 0.3,0.7 v 44.8 c 0,0.3 0.1,0.4 0.4,0.4 h 16.6 c 0.3,0 0.5,0.1 0.7,0.3 0.2,0.2 0.3,0.4 0.3,0.7 v 5.8 c 0,0.3 -0.1,0.5 -0.3,0.7 -0.2,0.2 -0.4,0.3 -0.7,0.3 h -25 c -0.4,-0.1 -0.7,-0.2 -0.8,-0.4 z"
   id="path17" /> <path
   class="st0"
   d="m 566.5,152 c -1,-1 -1.5,-2.3 -1.5,-3.9 0,-1.6 0.5,-2.9 1.5,-3.9 1,-1 2.3,-1.5 3.9,-1.5 1.6,0 2.9,0.5 3.9,1.5 1,1 1.5,2.3 1.5,3.9 0,1.6 -0.5,2.9 -1.5,3.9 -1,1 -2.3,1.5 -3.8,1.5 -1.6,0 -3,-0.5 -4,-1.5 z m -0.2,45.9 c -0.2,-0.2 -0.3,-0.4 -0.3,-0.7 v -37.4 c 0,-0.3 0.1,-0.5 0.3,-0.7 0.2,-0.2 0.4,-0.3 0.7,-0.3 h 7.1 c 0.3,0 0.5,0.1 0.7,0.3 0.2,0.2 0.3,0.4 0.3,0.7 v 37.4 c 0,0.3 -0.1,0.5 -0.3,0.7 -0.2,0.2 -0.4,0.3 -0.7,0.3 H 567 c -0.3,0 -0.5,-0.1 -0.7,-0.3 z"
   id="path18" /> <path
   class="st0"
   d="m 606.7,161.6 c 1.7,2.2 2.6,5.4 2.6,9.5 v 26.1 c 0,0.3 -0.1,0.5 -0.3,0.7 -0.2,0.2 -0.4,0.3 -0.7,0.3 h -7.1 c -0.3,0 -0.5,-0.1 -0.7,-0.3 -0.2,-0.2 -0.3,-0.4 -0.3,-0.7 v -25.4 c 0,-1.8 -0.4,-3.3 -1.2,-4.3 -0.8,-1 -1.9,-1.5 -3.3,-1.5 -1.5,0 -2.6,0.5 -3.5,1.6 -0.8,1.1 -1.2,2.6 -1.2,4.5 v 25.2 c 0,0.3 -0.1,0.5 -0.3,0.7 -0.2,0.2 -0.4,0.3 -0.7,0.3 h -7.1 c -0.3,0 -0.5,-0.1 -0.7,-0.3 -0.2,-0.2 -0.3,-0.4 -0.3,-0.7 v -37.4 c 0,-0.3 0.1,-0.5 0.3,-0.7 0.2,-0.2 0.4,-0.3 0.7,-0.3 h 7.1 c 0.3,0 0.5,0.1 0.7,0.3 0.2,0.2 0.3,0.4 0.3,0.7 v 1.5 c 0,0.2 0.1,0.2 0.2,0.3 0.1,0 0.3,-0.1 0.4,-0.3 1.7,-2 4.2,-3.1 7.3,-3.1 3.5,0 6,1.1 7.8,3.3 z"
   id="path19" /> <path
   class="st0"
   d="m 634,159.2 c 0.2,-0.2 0.4,-0.3 0.7,-0.3 h 7.1 c 0.3,0 0.5,0.1 0.7,0.3 0.2,0.2 0.3,0.4 0.3,0.7 v 37.4 c 0,0.3 -0.1,0.5 -0.3,0.7 -0.2,0.2 -0.4,0.3 -0.7,0.3 h -7.1 c -0.3,0 -0.5,-0.1 -0.7,-0.3 -0.2,-0.2 -0.3,-0.4 -0.3,-0.7 v -1.7 c 0,-0.2 -0.1,-0.3 -0.2,-0.3 -0.1,-0.1 -0.2,0 -0.3,0.2 -1.5,2.2 -3.9,3.3 -7.1,3.3 -3.1,0 -5.6,-0.9 -7.6,-2.8 -1.9,-1.9 -2.9,-4.8 -2.9,-8.6 V 160 c 0,-0.3 0.1,-0.5 0.3,-0.7 0.2,-0.2 0.4,-0.3 0.7,-0.3 h 7.1 c 0.3,0 0.5,0.1 0.7,0.3 0.2,0.2 0.3,0.4 0.3,0.7 v 25.5 c 0,3.8 1.5,5.8 4.5,5.8 1.5,0 2.6,-0.5 3.5,-1.7 0.8,-1.1 1.2,-2.6 1.2,-4.5 V 160 c -0.2,-0.4 -0.1,-0.6 0.1,-0.8 z"
   id="path20" /> <path
   class="st0"
   d="m 647.6,197.9 c -0.1,-0.2 -0.1,-0.4 0,-0.8 l 8.9,-18.4 c 0.1,-0.2 0.1,-0.3 0,-0.5 l -8.9,-18.3 c -0.1,-0.2 -0.2,-0.4 -0.2,-0.5 0,-0.4 0.3,-0.6 0.8,-0.6 h 7.7 c 0.5,0 0.9,0.2 1.1,0.7 l 4.8,10.4 c 0.2,0.3 0.3,0.3 0.5,0 l 4.8,-10.4 c 0.2,-0.5 0.6,-0.7 1.1,-0.7 h 7.7 c 0.4,0 0.6,0.1 0.7,0.3 0.1,0.2 0.1,0.4 0,0.8 l -8.9,18.3 c -0.1,0.2 -0.1,0.3 0,0.5 l 8.9,18.4 c 0.1,0.2 0.2,0.4 0.2,0.5 0,0.4 -0.3,0.6 -0.8,0.6 h -7.7 c -0.5,0 -0.9,-0.2 -1.1,-0.7 l -4.8,-10.7 c -0.2,-0.3 -0.3,-0.3 -0.5,0.1 l -4.8,10.6 c -0.2,0.5 -0.6,0.7 -1.1,0.7 h -7.7 c -0.3,0 -0.6,-0.1 -0.7,-0.3 z"
   id="path21" /> <path
   class="st1"
   d="m 698.4,151 c -0.8,-0.8 -1.2,-1.8 -1.2,-3.1 0,-1.3 0.4,-2.3 1.2,-3.1 0.8,-0.8 1.8,-1.2 3.1,-1.2 1.2,0 2.2,0.4 3,1.2 0.8,0.8 1.2,1.8 1.2,3.1 0,1.2 -0.4,2.3 -1.2,3.1 -0.8,0.8 -1.8,1.2 -3,1.2 -1.3,0 -2.3,-0.4 -3.1,-1.2 z m 0.4,46.4 v -37.3 c 0,-0.5 0.3,-0.8 0.8,-0.8 h 3.9 c 0.5,0 0.8,0.3 0.8,0.8 v 37.3 c 0,0.5 -0.3,0.8 -0.8,0.8 h -3.9 c -0.5,0 -0.8,-0.3 -0.8,-0.8 z"
   id="path22" /> <path
   class="st1"
   d="m 735.3,162 c 1.7,2.2 2.6,5.1 2.6,9 v 26.4 c 0,0.5 -0.3,0.8 -0.8,0.8 h -3.9 c -0.5,0 -0.8,-0.3 -0.8,-0.8 v -26 c 0,-2.5 -0.6,-4.5 -1.7,-5.8 -1.1,-1.4 -2.6,-2.1 -4.6,-2.1 -2,0 -3.6,0.7 -4.8,2.2 -1.2,1.5 -1.7,3.5 -1.7,6.1 v 25.6 c 0,0.5 -0.3,0.8 -0.8,0.8 H 715 c -0.5,0 -0.8,-0.3 -0.8,-0.8 v -37.3 c 0,-0.5 0.3,-0.8 0.8,-0.8 h 3.9 c 0.5,0 0.8,0.3 0.8,0.8 v 2.5 c 0,0.1 0.1,0.2 0.2,0.2 0.1,0.1 0.2,0 0.2,-0.2 0.9,-1.3 2.1,-2.2 3.5,-2.9 1.4,-0.6 2.9,-1 4.5,-1 3,0.1 5.5,1.1 7.2,3.3 z"
   id="path23" /> <path
   class="st0"
   d="m 297.6,271.8 c -2.6,-2.6 -3.9,-5.9 -3.9,-10.1 v -2 c 0,-0.3 0.1,-0.5 0.3,-0.7 0.2,-0.2 0.4,-0.3 0.7,-0.3 h 7 c 0.3,0 0.5,0.1 0.7,0.3 0.2,0.2 0.3,0.4 0.3,0.7 v 1.5 c 0,2 0.5,3.6 1.5,4.8 1,1.2 2.3,1.8 3.9,1.8 1.6,0 2.9,-0.6 3.9,-1.7 1,-1.2 1.5,-2.7 1.5,-4.6 0,-1.3 -0.3,-2.5 -0.8,-3.5 -0.6,-1 -1.4,-1.9 -2.4,-2.8 -1,-0.9 -2.7,-2.1 -4.9,-3.8 -2.6,-1.8 -4.6,-3.5 -6.2,-4.9 -1.6,-1.4 -2.9,-3.2 -3.9,-5.2 -1.1,-2 -1.6,-4.4 -1.6,-7 0,-4.3 1.3,-7.6 3.8,-10.1 2.6,-2.5 5.9,-3.8 10.1,-3.8 4.3,0 7.7,1.3 10.3,4 2.6,2.6 3.9,6.1 3.9,10.5 v 1.8 c 0,0.3 -0.1,0.5 -0.3,0.7 -0.2,0.2 -0.4,0.3 -0.7,0.3 h -6.9 c -0.3,0 -0.5,-0.1 -0.7,-0.3 -0.2,-0.2 -0.3,-0.4 -0.3,-0.7 v -2 c 0,-2 -0.5,-3.6 -1.5,-4.8 -1,-1.2 -2.3,-1.8 -4,-1.8 -1.5,0 -2.8,0.6 -3.8,1.7 -1,1.1 -1.5,2.6 -1.5,4.6 0,1.8 0.5,3.4 1.6,4.7 1,1.3 3.1,3 6.2,5.3 3.1,2.3 5.5,4.2 7.1,5.6 1.6,1.5 2.8,3.1 3.7,4.8 0.9,1.7 1.3,3.8 1.3,6.2 0,4.4 -1.3,7.8 -3.9,10.5 -2.6,2.6 -6,4 -10.3,4 -4.2,0.1 -7.6,-1.2 -10.2,-3.7 z"
   id="path24" /> <path
   class="st0"
   d="m 351.1,238.7 c 2.5,2.4 3.8,5.5 3.8,9.3 v 26.1 c 0,0.3 -0.1,0.5 -0.3,0.7 -0.2,0.2 -0.4,0.3 -0.7,0.3 h -7.1 c -0.3,0 -0.5,-0.1 -0.7,-0.3 -0.2,-0.2 -0.3,-0.4 -0.3,-0.7 v -1.5 c 0,-0.2 -0.1,-0.3 -0.2,-0.3 -0.1,-0.1 -0.2,0 -0.3,0.2 -1.8,2.1 -4.4,3.1 -7.8,3.1 -2.9,0 -5.5,-0.8 -7.7,-2.5 -2.2,-1.7 -3.3,-4.7 -3.3,-9.1 0,-4.6 1.3,-7.9 4,-9.8 2.7,-1.9 6.3,-2.9 10.9,-2.9 h 4 c 0.3,0 0.4,-0.1 0.4,-0.4 v -2 c 0,-1.8 -0.5,-3.3 -1.4,-4.4 -0.9,-1.1 -2.1,-1.7 -3.5,-1.7 -1.1,0 -2,0.3 -2.7,1 -0.7,0.7 -1.2,1.6 -1.3,2.8 -0.1,0.6 -0.4,0.9 -1,0.9 h -7.5 c -0.6,0 -0.9,-0.3 -0.8,-0.9 0.3,-3.5 1.6,-6.3 4.1,-8.4 2.5,-2.1 5.6,-3.1 9.3,-3.1 4.3,0 7.6,1.2 10.1,3.6 z m -6.9,28.1 c 1.2,-1 1.8,-2.3 1.8,-4.1 v -4.4 c 0,-0.3 -0.1,-0.4 -0.4,-0.4 h -4 c -1.7,0 -3.1,0.5 -4.2,1.4 -1.1,0.9 -1.6,2.3 -1.6,4.1 0,1.6 0.4,2.8 1.2,3.6 0.8,0.8 1.9,1.2 3.1,1.2 1.6,0 2.9,-0.5 4.1,-1.4 z"
   id="path25" /> <path
   class="st0"
   d="m 377.8,236 c 0.2,0.2 0.3,0.4 0.3,0.7 v 4.5 c 0,0.3 -0.1,0.5 -0.3,0.7 -0.2,0.2 -0.4,0.3 -0.7,0.3 h -4.8 c -0.3,0 -0.4,0.1 -0.4,0.4 v 31.6 c 0,0.3 -0.1,0.5 -0.3,0.7 -0.2,0.2 -0.4,0.3 -0.7,0.3 h -7 c -0.3,0 -0.5,-0.1 -0.7,-0.3 -0.2,-0.2 -0.3,-0.4 -0.3,-0.7 v -31.6 c 0,-0.3 -0.1,-0.4 -0.4,-0.4 H 360 c -0.3,0 -0.5,-0.1 -0.7,-0.3 -0.2,-0.2 -0.3,-0.4 -0.3,-0.7 v -4.5 c 0,-0.3 0.1,-0.5 0.3,-0.7 0.2,-0.2 0.4,-0.3 0.7,-0.3 h 2.5 c 0.3,0 0.4,-0.1 0.4,-0.4 v -1.9 c 0,-4.6 1,-7.9 3.1,-9.8 2.1,-1.9 5.5,-2.8 10.1,-2.8 h 0.6 c 0.3,0 0.5,0.1 0.7,0.3 0.2,0.2 0.3,0.4 0.3,0.7 l -0.2,5.2 c 0,0.3 -0.1,0.5 -0.3,0.7 -0.2,0.2 -0.4,0.3 -0.7,0.3 h -0.4 c -1.5,0.1 -2.7,0.6 -3.4,1.5 -0.7,0.9 -1.1,2.4 -1.1,4.3 v 1.5 c 0,0.3 0.1,0.4 0.4,0.4 h 4.8 c 0.6,0 0.8,0.1 1,0.3 z"
   id="path26" /> <path
   class="st0"
   d="m 409.9,258.4 c -0.2,0.2 -0.4,0.3 -0.7,0.3 h -17 c -0.3,0 -0.4,0.1 -0.4,0.4 v 3.5 c 0,1.6 0.4,2.9 1.3,3.9 0.9,1 2,1.5 3.4,1.5 1.2,0 2.2,-0.4 3,-1.1 0.8,-0.7 1.4,-1.7 1.7,-2.9 0.2,-0.5 0.5,-0.8 1,-0.8 l 6.8,0.3 c 0.3,0 0.5,0.1 0.7,0.3 0.2,0.2 0.2,0.4 0.2,0.7 -0.4,3.6 -1.7,6.3 -3.9,8.3 -2.3,1.9 -5.4,2.9 -9.4,2.9 -4.2,0 -7.5,-1.1 -9.9,-3.3 -2.4,-2.2 -3.6,-5.3 -3.6,-9.1 v -15.6 c 0,-3.7 1.2,-6.7 3.6,-9 2.4,-2.3 5.7,-3.4 9.9,-3.4 4.2,0 7.5,1.1 9.9,3.4 2.4,2.3 3.6,5.3 3.6,9 v 10.1 c 0.1,0.2 0,0.4 -0.2,0.6 z m -16.7,-14.1 c -0.9,1 -1.3,2.3 -1.3,3.9 v 3.5 c 0,0.3 0.1,0.4 0.4,0.4 h 8.7 c 0.3,0 0.4,-0.1 0.4,-0.4 v -3.5 c 0,-1.6 -0.4,-3 -1.3,-4 -0.9,-1 -2,-1.5 -3.5,-1.5 -1.4,0.1 -2.5,0.6 -3.4,1.6 z"
   id="path27" /> <path
   class="st0"
   d="m 432.3,241.8 c -0.2,0.2 -0.4,0.3 -0.7,0.3 h -4.8 c -0.3,0 -0.4,0.1 -0.4,0.4 v 20.1 c 0,1.8 0.3,3 1,3.7 0.7,0.7 1.7,1 3,1 h 0.5 c 0.3,0 0.5,0.1 0.7,0.3 0.2,0.2 0.3,0.4 0.3,0.7 v 5.9 c 0,0.3 -0.1,0.5 -0.3,0.7 -0.2,0.2 -0.4,0.3 -0.7,0.3 h -2.6 c -3.5,0 -6.1,-0.6 -7.9,-1.9 -1.8,-1.3 -2.7,-3.7 -2.7,-7.2 v -23.4 c 0,-0.3 -0.1,-0.4 -0.4,-0.4 h -2.7 c -0.3,0 -0.5,-0.1 -0.7,-0.3 -0.2,-0.2 -0.3,-0.4 -0.3,-0.7 v -4.5 c 0,-0.3 0.1,-0.5 0.3,-0.7 0.2,-0.2 0.4,-0.3 0.7,-0.3 h 2.7 c 0.3,0 0.4,-0.1 0.4,-0.4 v -8.5 c 0,-0.3 0.1,-0.5 0.3,-0.7 0.2,-0.2 0.4,-0.3 0.7,-0.3 h 6.8 c 0.3,0 0.5,0.1 0.7,0.3 0.2,0.2 0.3,0.4 0.3,0.7 v 8.5 c 0,0.3 0.1,0.4 0.4,0.4 h 4.8 c 0.3,0 0.5,0.1 0.7,0.3 0.2,0.2 0.3,0.4 0.3,0.7 v 4.5 c -0.2,0.1 -0.2,0.3 -0.4,0.5 z"
   id="path28" /> <path
   class="st0"
   d="m 437,290 c -0.1,-0.2 -0.2,-0.4 -0.2,-0.7 v -5.5 c 0,-0.3 0.1,-0.5 0.2,-0.7 0.2,-0.2 0.3,-0.3 0.5,-0.3 1.7,-0.1 3,-0.3 4,-0.7 1,-0.4 1.8,-1.1 2.3,-2.2 0.6,-1.1 1,-2.7 1.3,-4.8 l -0.1,-0.5 -9.7,-38.1 v -0.3 c 0,-0.5 0.3,-0.7 0.8,-0.7 h 7.5 c 0.6,0 0.9,0.3 1,0.8 l 4.7,25.4 c 0.1,0.2 0.1,0.2 0.2,0.2 0.1,0 0.2,-0.1 0.2,-0.2 l 4.5,-25.4 c 0.1,-0.6 0.4,-0.8 1,-0.8 l 7.6,0.2 c 0.7,0 1,0.3 0.8,1 L 453.3,277 c -1,3.6 -2,6.4 -3.1,8.1 -1.1,1.8 -2.6,3.1 -4.5,3.8 -1.9,0.8 -4.7,1.2 -8.4,1.2 h -0.4 c 0.3,0.2 0.2,0.1 0.1,-0.1 z"
   id="path29" /> <path
   class="st1"
   d="m 505.5,274.3 -1.9,-9.5 c 0,-0.1 0,-0.2 -0.1,-0.2 -0.1,-0.1 -0.2,-0.1 -0.3,-0.1 h -13.9 c -0.1,0 -0.2,0 -0.3,0.1 -0.1,0.1 -0.1,0.1 -0.1,0.2 l -1.9,9.5 c -0.1,0.5 -0.3,0.7 -0.8,0.7 h -3.9 c -0.3,0 -0.4,-0.1 -0.6,-0.2 -0.1,-0.2 -0.2,-0.4 -0.1,-0.6 L 493.1,222 c 0.1,-0.5 0.4,-0.7 0.8,-0.7 h 4.6 c 0.5,0 0.8,0.2 0.8,0.7 l 11.7,52.2 v 0.2 c 0,0.5 -0.2,0.7 -0.7,0.7 h -4 c -0.4,-0.1 -0.7,-0.3 -0.8,-0.8 z M 490.2,260 h 12.1 c 0.2,0 0.2,-0.1 0.2,-0.3 l -6.1,-30.2 c -0.1,-0.2 -0.1,-0.2 -0.2,-0.2 -0.1,0 -0.1,0.1 -0.2,0.2 l -6.1,30.2 c 0,0.2 0.1,0.3 0.3,0.3 z"
   id="path30" /> <path
   class="st1"
   d="m 538.2,238.8 c 1.9,2.2 2.9,5 2.9,8.5 v 16.6 c 0,3.6 -1,6.4 -2.9,8.6 -1.9,2.1 -4.5,3.2 -7.8,3.2 -1.4,0 -2.8,-0.3 -4.1,-0.8 -1.3,-0.5 -2.4,-1.4 -3.4,-2.5 -0.1,-0.1 -0.2,-0.1 -0.3,-0.1 -0.1,0.1 -0.1,0.1 -0.1,0.2 v 16.7 c 0,0.5 -0.3,0.8 -0.8,0.8 h -3.9 c -0.5,0 -0.8,-0.3 -0.8,-0.8 V 237 c 0,-0.5 0.3,-0.8 0.8,-0.8 h 3.9 c 0.5,0 0.8,0.3 0.8,0.8 v 1.8 c 0,0.1 0.1,0.2 0.2,0.2 0.1,0 0.2,0 0.3,-0.1 0.9,-1.1 2,-1.9 3.3,-2.4 1.3,-0.5 2.7,-0.8 4,-0.8 3.3,-0.2 5.9,0.9 7.9,3.1 z m -4.4,3.5 c -1.3,-1.4 -2.9,-2 -4.8,-2 -1.9,0 -3.4,0.7 -4.6,2 -1.2,1.4 -1.8,3.1 -1.8,5.3 v 15.8 c 0,2.2 0.6,4 1.8,5.3 1.2,1.4 2.8,2 4.6,2 1.9,0 3.5,-0.7 4.8,-2 1.3,-1.4 1.9,-3.1 1.9,-5.3 v -15.8 c 0,-2.2 -0.6,-3.9 -1.9,-5.3 z"
   id="path31" /> <path
   class="st1"
   d="m 571.1,238.8 c 1.9,2.2 2.9,5 2.9,8.5 v 16.6 c 0,3.6 -1,6.4 -2.9,8.6 -1.9,2.1 -4.5,3.2 -7.8,3.2 -1.4,0 -2.8,-0.3 -4.1,-0.8 -1.3,-0.5 -2.4,-1.4 -3.4,-2.5 -0.1,-0.1 -0.2,-0.1 -0.3,-0.1 -0.1,0.1 -0.1,0.1 -0.1,0.2 v 16.7 c 0,0.5 -0.3,0.8 -0.8,0.8 h -3.9 c -0.5,0 -0.8,-0.3 -0.8,-0.8 V 237 c 0,-0.5 0.3,-0.8 0.8,-0.8 h 3.9 c 0.5,0 0.8,0.3 0.8,0.8 v 1.8 c 0,0.1 0.1,0.2 0.2,0.2 0.1,0 0.2,0 0.3,-0.1 0.9,-1.1 2,-1.9 3.3,-2.4 1.3,-0.5 2.7,-0.8 4,-0.8 3.3,-0.2 5.9,0.9 7.9,3.1 z m -4.4,3.5 c -1.3,-1.4 -2.9,-2 -4.8,-2 -1.9,0 -3.4,0.7 -4.6,2 -1.2,1.4 -1.8,3.1 -1.8,5.3 v 15.8 c 0,2.2 0.6,4 1.8,5.3 1.2,1.4 2.8,2 4.6,2 1.9,0 3.5,-0.7 4.8,-2 1.3,-1.4 1.9,-3.1 1.9,-5.3 v -15.8 c 0,-2.2 -0.6,-3.9 -1.9,-5.3 z"
   id="path32" /> <path
   class="st1"
   d="M 582,274.2 V 222 c 0,-0.5 0.3,-0.8 0.8,-0.8 h 3.9 c 0.5,0 0.8,0.3 0.8,0.8 v 52.2 c 0,0.5 -0.3,0.8 -0.8,0.8 h -3.9 c -0.5,0 -0.8,-0.3 -0.8,-0.8 z"
   id="path33" /> <path
   class="st1"
   d="m 596.6,227.8 c -0.8,-0.8 -1.2,-1.8 -1.2,-3.1 0,-1.3 0.4,-2.3 1.2,-3.1 0.8,-0.8 1.8,-1.2 3.1,-1.2 1.2,0 2.2,0.4 3,1.2 0.8,0.8 1.2,1.8 1.2,3.1 0,1.2 -0.4,2.3 -1.2,3.1 -0.8,0.8 -1.8,1.2 -3,1.2 -1.3,0 -2.3,-0.4 -3.1,-1.2 z m 0.4,46.4 v -37.3 c 0,-0.5 0.3,-0.8 0.8,-0.8 h 3.9 c 0.5,0 0.8,0.3 0.8,0.8 v 37.3 c 0,0.5 -0.3,0.8 -0.8,0.8 h -3.9 c -0.5,0 -0.8,-0.3 -0.8,-0.8 z"
   id="path34" /> <path
   class="st1"
   d="m 614.8,272.4 c -2.2,-2.2 -3.3,-5 -3.3,-8.5 v -16.6 c 0,-3.5 1.1,-6.3 3.3,-8.5 2.2,-2.2 5.1,-3.3 8.7,-3.3 2.4,0 4.5,0.5 6.4,1.5 1.8,1 3.3,2.3 4.3,3.9 1,1.6 1.5,3.4 1.5,5.3 v 0.8 c 0,0.5 -0.3,0.8 -0.8,0.8 L 631,248 c -0.5,0 -0.8,-0.3 -0.8,-0.8 v -0.5 c 0,-1.7 -0.6,-3.2 -1.9,-4.4 -1.3,-1.3 -2.9,-1.9 -4.8,-1.9 -1.9,0 -3.5,0.7 -4.7,2 -1.2,1.4 -1.8,3.1 -1.8,5.3 v 15.8 c 0,2.2 0.6,4 1.8,5.3 1.2,1.4 2.8,2 4.7,2 1.9,0 3.5,-0.6 4.8,-1.9 1.3,-1.3 1.9,-2.7 1.9,-4.4 V 264 c 0,-0.5 0.3,-0.8 0.8,-0.8 l 3.9,0.1 c 0.5,0 0.8,0.3 0.8,0.8 v 0.8 c 0,3.1 -1.1,5.6 -3.3,7.6 -2.2,2 -5.2,3 -8.8,3 -3.7,0.1 -6.6,-1 -8.8,-3.1 z"
   id="path35" /> <path
   class="st1"
   d="m 663.2,239 c 2.2,2.3 3.2,5.4 3.2,9.3 v 25.9 c 0,0.5 -0.3,0.8 -0.8,0.8 h -3.9 c -0.5,0 -0.8,-0.3 -0.8,-0.8 v -2.3 c 0,-0.1 0,-0.2 -0.1,-0.2 -0.1,0 -0.2,0 -0.3,0.1 -1.9,2.5 -4.7,3.8 -8.5,3.8 -2.8,0 -5.3,-0.8 -7.3,-2.4 -2.1,-1.6 -3.1,-4.5 -3.1,-8.6 0,-4.4 1.3,-7.5 3.8,-9.6 2.5,-2 5.8,-3 9.9,-3 h 5.4 c 0.2,0 0.3,-0.1 0.3,-0.3 v -3 c 0,-2.6 -0.6,-4.6 -1.8,-6.1 -1.2,-1.5 -2.8,-2.3 -4.8,-2.3 -1.5,0 -2.9,0.5 -4,1.5 -1.1,1 -1.8,2.3 -2,3.9 0,0.5 -0.3,0.8 -0.8,0.8 l -4.3,-0.1 c -0.3,0 -0.4,-0.1 -0.6,-0.2 -0.1,-0.2 -0.2,-0.3 -0.1,-0.5 0.3,-3 1.5,-5.5 3.7,-7.3 2.2,-1.9 4.9,-2.8 8.1,-2.8 3.8,-0.1 6.7,1.1 8.8,3.4 z m -4.5,29.8 c 1.5,-1.4 2.3,-3.2 2.3,-5.6 v -6.5 c 0,-0.2 -0.1,-0.3 -0.3,-0.3 h -5.5 c -2.5,0 -4.4,0.7 -5.8,2 -1.4,1.3 -2.2,3.2 -2.2,5.8 0,2.3 0.5,3.9 1.7,5 1.1,1.1 2.5,1.7 4.3,1.7 2.2,-0.1 4,-0.7 5.5,-2.1 z"
   id="path36" /> <path
   class="st1"
   d="m 687.9,240.2 h -5.8 c -0.2,0 -0.3,0.1 -0.3,0.3 V 264 c 0,2.4 0.4,4 1.2,4.9 0.8,0.9 2.1,1.3 3.8,1.3 h 0.8 c 0.5,0 0.8,0.3 0.8,0.8 v 3.3 c 0,0.5 -0.3,0.8 -0.8,0.8 h -1.9 c -3,0 -5.3,-0.7 -6.9,-2 -1.6,-1.3 -2.3,-3.8 -2.3,-7.4 v -25.1 c 0,-0.2 -0.1,-0.3 -0.3,-0.3 h -3 c -0.5,0 -0.8,-0.3 -0.8,-0.8 V 237 c 0,-0.5 0.3,-0.8 0.8,-0.8 h 3 c 0.2,0 0.3,-0.1 0.3,-0.3 v -8.6 c 0,-0.5 0.3,-0.8 0.8,-0.8 h 3.8 c 0.5,0 0.8,0.3 0.8,0.8 v 8.6 c 0,0.2 0.1,0.3 0.3,0.3 h 5.8 c 0.5,0 0.8,0.3 0.8,0.8 v 2.5 c -0.1,0.4 -0.4,0.7 -0.9,0.7 z"
   id="path37" /> <path
   class="st1"
   d="m 695.7,227.8 c -0.8,-0.8 -1.2,-1.8 -1.2,-3.1 0,-1.3 0.4,-2.3 1.2,-3.1 0.8,-0.8 1.8,-1.2 3.1,-1.2 1.2,0 2.2,0.4 3,1.2 0.8,0.8 1.2,1.8 1.2,3.1 0,1.2 -0.4,2.3 -1.2,3.1 -0.8,0.8 -1.8,1.2 -3,1.2 -1.3,0 -2.3,-0.4 -3.1,-1.2 z m 0.4,46.4 v -37.3 c 0,-0.5 0.3,-0.8 0.8,-0.8 h 3.9 c 0.5,0 0.8,0.3 0.8,0.8 v 37.3 c 0,0.5 -0.3,0.8 -0.8,0.8 h -3.9 c -0.5,0 -0.8,-0.3 -0.8,-0.8 z"
   id="path38" /> <path
   class="st1"
   d="m 713.9,272.4 c -2.2,-2.2 -3.3,-5 -3.3,-8.5 v -16.5 c 0,-3.5 1.1,-6.3 3.3,-8.5 2.2,-2.2 5.1,-3.3 8.8,-3.3 3.7,0 6.6,1.1 8.8,3.3 2.2,2.2 3.3,5 3.3,8.5 v 16.5 c 0,3.5 -1.1,6.4 -3.3,8.5 -2.2,2.2 -5.1,3.2 -8.8,3.2 -3.7,0 -6.6,-1.1 -8.8,-3.2 z m 13.6,-3.6 c 1.3,-1.3 1.9,-3.1 1.9,-5.3 v -15.8 c 0,-2.2 -0.6,-4 -1.9,-5.3 -1.3,-1.4 -2.9,-2 -4.8,-2 -1.9,0 -3.5,0.7 -4.8,2 -1.2,1.4 -1.8,3.1 -1.8,5.3 v 15.8 c 0,2.2 0.6,4 1.8,5.3 1.2,1.3 2.8,2 4.8,2 2,0 3.6,-0.7 4.8,-2 z"
   id="path39" /> <path
   class="st1"
   d="m 764.5,238.8 c 1.7,2.2 2.6,5.1 2.6,9 v 26.4 c 0,0.5 -0.3,0.8 -0.8,0.8 h -3.9 c -0.5,0 -0.8,-0.3 -0.8,-0.8 v -26 c 0,-2.5 -0.6,-4.5 -1.7,-5.8 -1.1,-1.4 -2.6,-2.1 -4.6,-2.1 -2,0 -3.6,0.7 -4.8,2.2 -1.2,1.5 -1.7,3.5 -1.7,6.1 v 25.6 c 0,0.5 -0.3,0.8 -0.8,0.8 h -3.9 c -0.5,0 -0.8,-0.3 -0.8,-0.8 v -37.3 c 0,-0.5 0.3,-0.8 0.8,-0.8 h 3.9 c 0.5,0 0.8,0.3 0.8,0.8 v 2.5 c 0,0.1 0.1,0.2 0.2,0.2 0.1,0.1 0.2,0 0.2,-0.2 0.9,-1.3 2.1,-2.2 3.5,-2.9 1.4,-0.6 2.9,-1 4.5,-1 3.1,0.1 5.6,1.2 7.3,3.3 z"
   id="path40" /> <path
   class="st1"
   d="m 777.6,272.6 c -2.1,-1.8 -3.2,-4.2 -3.2,-7.3 v -0.5 c 0,-0.5 0.3,-0.8 0.8,-0.8 h 3.7 c 0.5,0 0.8,0.3 0.8,0.8 v 0.5 c 0,1.6 0.6,3 1.8,4.1 1.2,1.1 2.8,1.7 4.7,1.7 1.8,0 3.3,-0.6 4.5,-1.7 1.1,-1.1 1.7,-2.6 1.7,-4.3 0,-1.3 -0.4,-2.4 -1.1,-3.3 -0.7,-0.9 -1.5,-1.6 -2.5,-2.1 -0.9,-0.5 -2.4,-1.2 -4.3,-2 -2,-0.8 -3.6,-1.6 -5,-2.4 -1.3,-0.8 -2.4,-1.9 -3.4,-3.4 -0.9,-1.5 -1.4,-3.3 -1.4,-5.6 0,-3.3 1,-5.9 3,-7.8 2,-1.9 4.8,-2.8 8.2,-2.8 3.5,0 6.2,1 8.3,2.9 2,1.9 3.1,4.5 3.1,7.8 v 0.2 c 0,0.5 -0.3,0.8 -0.8,0.8 H 793 c -0.5,0 -0.8,-0.3 -0.8,-0.8 v -0.5 c 0,-1.7 -0.6,-3.2 -1.7,-4.3 -1.2,-1.1 -2.7,-1.7 -4.5,-1.7 -1.8,0 -3.3,0.6 -4.4,1.7 -1.1,1.2 -1.7,2.6 -1.7,4.3 0,1.2 0.3,2.3 1,3.1 0.7,0.8 1.5,1.5 2.5,2.1 1,0.5 2.3,1.2 4.1,2 2.1,0.9 3.8,1.8 5.2,2.6 1.4,0.8 2.5,2 3.6,3.5 1,1.5 1.5,3.3 1.5,5.5 0,3.2 -1.1,5.7 -3.1,7.6 -2.1,1.9 -4.9,2.8 -8.5,2.8 -3.6,0.1 -6.5,-0.8 -8.6,-2.7 z"
   id="path41" /> </g> </g> </svg>
