<?xml version="1.0" encoding="UTF-8" standalone="no"?>
<!-- Generator: Adobe Illustrator 28.2.0, SVG Export Plug-In . SVG Version: 6.00 Build 0)  -->

<svg
   version="1.1"
   id="Layer_1"
   x="0px"
   y="0px"
   width="263.79999"
   height="294.47501"
   viewBox="0 0 263.79999 294.47501"
   xml:space="preserve"
   sodipodi:docname="elisa-logo.svg"
   inkscape:version="1.4 (e7c3feb100, 2024-10-09)"
   xmlns:inkscape="http://www.inkscape.org/namespaces/inkscape"
   xmlns:sodipodi="http://sodipodi.sourceforge.net/DTD/sodipodi-0.dtd"
   xmlns="http://www.w3.org/2000/svg"
   xmlns:svg="http://www.w3.org/2000/svg"><defs
   id="defs43">
	
	
	
	
</defs><sodipodi:namedview
   id="namedview43"
   pagecolor="#ffffff"
   bordercolor="#000000"
   borderopacity="0.25"
   inkscape:showpageshadow="2"
   inkscape:pageopacity="0.0"
   inkscape:pagecheckerboard="0"
   inkscape:deskcolor="#d1d1d1"
   inkscape:zoom="1.4872149"
   inkscape:cx="194.32296"
   inkscape:cy="197.01255"
   inkscape:window-width="2490"
   inkscape:window-height="1371"
   inkscape:window-x="0"
   inkscape:window-y="0"
   inkscape:window-maximized="1"
   inkscape:current-layer="Layer_1"
   showgrid="false" />
<style
   type="text/css"
   id="style1">
	.st0{fill:#77C046;}
	.st1{fill:#333333;}
	.st2{fill:#FFFFFF;}
</style>
<path
   class="st0"
   d="m 247.6,61.875 -99.9,-57.6 c -9.8,-5.7 -22.1,-5.7 -31.9,0 L 16,61.875 c -9.9,5.7 -16,16.3 -16,27.7 v 115.3 c 0,11.4 6.1,21.9 16,27.6 l 99.9,57.7 c 4.8,2.8 10.3,4.3 16,4.3 5.6,0 11.1,-1.5 16,-4.3 l 99.9,-57.7 c 9.8,-5.7 16,-16.3 16,-27.6 v -115.3 c -0.2,-11.4 -6.4,-22 -16.2,-27.7 z m 0.6,27.7 v 115.3 c 0,5.9 -3.2,11.4 -8.3,14.4 l -99.9,57.7 c -5.1,3 -11.5,3 -16.6,0 l -99.9,-57.7 c -5.1,-3 -8.3,-8.5 -8.3,-14.4 v -115.3 c 0,-5.9 3.2,-11.4 8.3,-14.4 l 99.9,-57.7 c 2.5,-1.4 5.4,-2.2 8.3,-2.2 2.9,0 5.8,0.8 8.3,2.2 l 99.9,57.7 c 5.2,2.9 8.3,8.4 8.3,14.4 z"
   id="path1" /><g
   id="g4"
   transform="translate(0,-0.025)">
		<g
   id="g3">
			<polygon
   class="st0"
   points="174.1,188 162.6,175.8 120.7,215.5 101,196.8 89.5,209 120.7,238.5 "
   id="polygon1" />
			<polygon
   class="st0"
   points="174.1,127.9 162.6,115.8 120.7,155.5 101,136.8 89.5,149 120.7,178.5 "
   id="polygon2" />
			<polygon
   class="st0"
   points="89.5,88.9 120.7,118.5 174.1,67.9 162.6,55.8 120.7,95.5 101,76.8 "
   id="polygon3" />
		</g>
	</g>
</svg>
