<?xml version="1.0" encoding="UTF-8" standalone="no"?>
<!DOCTYPE svg PUBLIC "-//W3C//DTD SVG 1.1//EN"
 "http://www.w3.org/Graphics/SVG/1.1/DTD/svg11.dtd">
<!-- Generated by graphviz version 2.43.0 (0)
 -->
<!-- Title: G Pages: 1 -->
<svg width="296pt" height="213pt"
 viewBox="0.00 0.00 296.00 213.00" xmlns="http://www.w3.org/2000/svg" xmlns:xlink="http://www.w3.org/1999/xlink">
<g id="graph0" class="graph" transform="scale(1 1) rotate(0) translate(4 209)">
<title>G</title>
<polygon fill="white" stroke="transparent" points="-4,4 -4,-209 292,-209 292,4 -4,4"/>
<g id="clust1" class="cluster">
<title>cluster_aircraft</title>
<polygon fill="none" stroke="black" points="19,-8 19,-174 264,-174 264,-8 19,-8"/>
<text text-anchor="middle" x="141.5" y="-158.8" font-family="arial" font-size="14.00">Aircraft</text>
</g>
<!-- Crew -->
<g id="node1" class="node">
<title>Crew</title>
<g id="a_node1"><a xlink:href="#Crew" xlink:title="Flight Crew">
<polygon fill="none" stroke="black" points="288,-205 0,-205 0,-182 288,-182 288,-205"/>
<text text-anchor="middle" x="144" y="-189.8" font-family="arial" font-size="14.00">Flight Crew</text>
</a>
</g>
</g>
<!-- Other -->
<g id="node2" class="node">
<title>Other</title>
<polygon fill="none" stroke="black" points="255.5,-143 164.5,-143 164.5,-90 255.5,-90 255.5,-143"/>
<text text-anchor="middle" x="210" y="-127.8" font-family="arial" font-size="14.00">Other</text>
<text text-anchor="middle" x="210" y="-112.8" font-family="arial" font-size="14.00">Aircraft</text>
<text text-anchor="middle" x="210" y="-97.8" font-family="arial" font-size="14.00">Subsystems</text>
</g>
<!-- Crew&#45;&gt;Other -->
<g id="edge2" class="edge">
<title>Crew&#45;&gt;Other</title>
<path fill="none" stroke="black" d="M194.83,-181.81C194.83,-181.81 194.83,-153.01 194.83,-153.01"/>
<polygon fill="black" stroke="black" points="198.33,-153.01 194.83,-143.01 191.33,-153.01 198.33,-153.01"/>
</g>
<!-- BSCU -->
<g id="node3" class="node">
<title>BSCU</title>
<g id="a_node3"><a xlink:href="#BSCU" xlink:title="Brake System\nControl Unit\n (BSCU)">
<polygon fill="none" stroke="black" points="128.5,-143 27.5,-143 27.5,-90 128.5,-90 128.5,-143"/>
<text text-anchor="middle" x="78" y="-127.8" font-family="arial" font-size="14.00">Brake System</text>
<text text-anchor="middle" x="78" y="-112.8" font-family="arial" font-size="14.00">Control Unit</text>
<text text-anchor="middle" x="78" y="-97.8" font-family="arial" font-size="14.00"> (BSCU)</text>
</a>
</g>
</g>
<!-- Crew&#45;&gt;BSCU -->
<g id="edge1" class="edge">
<title>Crew&#45;&gt;BSCU</title>
<path fill="none" stroke="black" d="M61.17,-181.81C61.17,-181.81 61.17,-153.01 61.17,-153.01"/>
<polygon fill="black" stroke="black" points="64.67,-153.01 61.17,-143.01 57.67,-153.01 64.67,-153.01"/>
</g>
<!-- Other&#45;&gt;Crew -->
<g id="edge3" class="edge">
<title>Other&#45;&gt;Crew</title>
<path fill="none" stroke="black" stroke-dasharray="5,2" d="M225.17,-143.43C225.17,-143.43 225.17,-171.95 225.17,-171.95"/>
<polygon fill="black" stroke="black" points="221.67,-171.95 225.17,-181.95 228.67,-171.95 221.67,-171.95"/>
</g>
<!-- BSCU&#45;&gt;Crew -->
<g id="edge6" class="edge">
<title>BSCU&#45;&gt;Crew</title>
<path fill="none" stroke="black" stroke-dasharray="5,2" d="M94.83,-143.43C94.83,-143.43 94.83,-171.95 94.83,-171.95"/>
<polygon fill="black" stroke="black" points="91.33,-171.95 94.83,-181.95 98.33,-171.95 91.33,-171.95"/>
</g>
<!-- Brake -->
<g id="node4" class="node">
<title>Brake</title>
<g id="a_node4"><a xlink:href="#Brake" xlink:title="Physical\n Wheel Brakes">
<polygon fill="none" stroke="black" points="132.5,-54 27.5,-54 27.5,-16 132.5,-16 132.5,-54"/>
<text text-anchor="middle" x="80" y="-38.8" font-family="arial" font-size="14.00">Physical</text>
<text text-anchor="middle" x="80" y="-23.8" font-family="arial" font-size="14.00"> Wheel Brakes</text>
</a>
</g>
</g>
<!-- BSCU&#45;&gt;Brake -->
<g id="edge4" class="edge">
<title>BSCU&#45;&gt;Brake</title>
<path fill="none" stroke="black" d="M61.17,-89.81C61.17,-89.81 61.17,-64.25 61.17,-64.25"/>
<polygon fill="black" stroke="black" points="64.67,-64.25 61.17,-54.25 57.67,-64.25 64.67,-64.25"/>
</g>
<!-- Brake&#45;&gt;BSCU -->
<g id="edge5" class="edge">
<title>Brake&#45;&gt;BSCU</title>
<path fill="none" stroke="black" stroke-dasharray="5,2" d="M94.83,-54.31C94.83,-54.31 94.83,-79.92 94.83,-79.92"/>
<polygon fill="black" stroke="black" points="91.33,-79.92 94.83,-89.92 98.33,-79.92 91.33,-79.92"/>
</g>
</g>
</svg>
