<?xml version="1.0" encoding="UTF-8" standalone="no"?>
<!DOCTYPE svg PUBLIC "-//W3C//DTD SVG 1.1//EN"
 "http://www.w3.org/Graphics/SVG/1.1/DTD/svg11.dtd">
<!-- Generated by graphviz version 2.43.0 (0)
 -->
<!-- Title: G Pages: 1 -->
<svg width="488pt" height="667pt"
 viewBox="0.00 0.00 488.00 666.86" xmlns="http://www.w3.org/2000/svg" xmlns:xlink="http://www.w3.org/1999/xlink">
<g id="graph0" class="graph" transform="scale(1 1) rotate(0) translate(4 662.86)">
<title>G</title>
<polygon fill="white" stroke="transparent" points="-4,4 -4,-662.86 484,-662.86 484,4 -4,4"/>
<g id="clust1" class="cluster">
<title>cluster_controller</title>
<polygon fill="none" stroke="black" points="78,-464.91 78,-593.86 472,-593.86 472,-464.91 78,-464.91"/>
<text text-anchor="middle" x="275" y="-570.66" font-family="arial" font-size="24.00">Controller (C)</text>
</g>
<g id="clust2" class="cluster">
<title>cluster_process</title>
<polygon fill="none" stroke="black" points="78,-99 78,-227.95 472,-227.95 472,-99 78,-99"/>
<text text-anchor="middle" x="275" y="-204.75" font-family="arial" font-size="24.00">Controlled process (P)</text>
</g>
<g id="clust3" class="cluster">
<title>cluster_cpath</title>
<polygon fill="none" stroke="grey" points="78,-281.95 78,-399.91 242,-399.91 242,-281.95 78,-281.95"/>
<text text-anchor="middle" x="160" y="-384.71" font-family="arial" font-size="14.00">Action path (AP)</text>
</g>
<g id="clust4" class="cluster">
<title>cluster_fpath</title>
<polygon fill="none" stroke="grey" points="308,-281.95 308,-399.91 472,-399.91 472,-281.95 308,-281.95"/>
<text text-anchor="middle" x="390" y="-384.71" font-family="arial" font-size="14.00">Feedback path (AP)</text>
</g>
<!-- disturbc -->
<g id="node1" class="node">
<title>disturbc</title>
</g>
<!-- controller -->
<g id="node5" class="node">
<title>controller</title>
<ellipse fill="none" stroke="black" stroke-dasharray="1,5" cx="160" cy="-512.38" rx="72" ry="37.45"/>
<text text-anchor="middle" x="160" y="-523.68" font-family="arial" font-size="14.00">Controller</text>
<text text-anchor="middle" x="160" y="-508.68" font-family="arial" font-size="14.00"> algorithm</text>
<text text-anchor="middle" x="160" y="-493.68" font-family="arial" font-size="14.00">(CA)</text>
</g>
<!-- disturbc&#45;&gt;controller -->
<g id="edge3" class="edge">
<title>disturbc&#45;&gt;controller</title>
<path fill="none" stroke="black" d="M1.71,-512C1.71,-512 77.83,-512 77.83,-512"/>
<polygon fill="black" stroke="black" points="68,-515.51 78,-512 68,-508.51 68,-515.51"/>
<text text-anchor="middle" x="39" y="-545.8" font-family="arial" font-size="14.00">Controller</text>
<text text-anchor="middle" x="39" y="-530.8" font-family="arial" font-size="14.00">disturbance &#160;</text>
<text text-anchor="middle" x="39" y="-515.8" font-family="arial" font-size="14.00">(CD)</text>
</g>
<!-- disturbp -->
<g id="node2" class="node">
<title>disturbp</title>
</g>
<!-- controlled -->
<g id="node7" class="node">
<title>controlled</title>
<ellipse fill="none" stroke="black" stroke-dasharray="1,5" cx="160" cy="-146.48" rx="72" ry="37.45"/>
<text text-anchor="middle" x="160" y="-157.78" font-family="arial" font-size="14.00">Process</text>
<text text-anchor="middle" x="160" y="-142.78" font-family="arial" font-size="14.00">behaviour</text>
<text text-anchor="middle" x="160" y="-127.78" font-family="arial" font-size="14.00">(PB)</text>
</g>
<!-- disturbp&#45;&gt;controlled -->
<g id="edge8" class="edge">
<title>disturbp&#45;&gt;controlled</title>
<path fill="none" stroke="black" d="M1.71,-146C1.71,-146 77.83,-146 77.83,-146"/>
<polygon fill="black" stroke="black" points="68,-149.51 78,-146 68,-142.51 68,-149.51"/>
<text text-anchor="middle" x="39" y="-179.8" font-family="arial" font-size="14.00">Process</text>
<text text-anchor="middle" x="39" y="-164.8" font-family="arial" font-size="14.00">disturbance &#160;</text>
<text text-anchor="middle" x="39" y="-149.8" font-family="arial" font-size="14.00">(PD)</text>
</g>
<!-- inputc -->
<g id="node3" class="node">
<title>inputc</title>
</g>
<!-- inputc&#45;&gt;controller -->
<g id="edge1" class="edge">
<title>inputc&#45;&gt;controller</title>
<path fill="none" stroke="black" d="M160,-657.71C160,-657.71 160,-629.94 160,-604.02"/>
<polygon fill="black" stroke="black" points="163.5,-603.86 160,-593.86 156.5,-603.86 163.5,-603.86"/>
<text text-anchor="middle" x="107" y="-630.51" font-family="arial" font-size="14.00">Controller inputs &#160;</text>
<text text-anchor="middle" x="107" y="-615.51" font-family="arial" font-size="14.00">(CI)</text>
</g>
<!-- outputc -->
<g id="node4" class="node">
<title>outputc</title>
</g>
<!-- model -->
<g id="node6" class="node">
<title>model</title>
<ellipse fill="none" stroke="black" stroke-dasharray="1,5" cx="390" cy="-512.38" rx="72" ry="37.45"/>
<text text-anchor="middle" x="390" y="-523.68" font-family="arial" font-size="14.00">Process</text>
<text text-anchor="middle" x="390" y="-508.68" font-family="arial" font-size="14.00">model</text>
<text text-anchor="middle" x="390" y="-493.68" font-family="arial" font-size="14.00">(PM)</text>
</g>
<!-- outputc&#45;&gt;model -->
<g id="edge2" class="edge">
<title>outputc&#45;&gt;model</title>
<path fill="none" stroke="black" d="M390,-647.71C390,-647.71 390,-619.83 390,-593.86"/>
<polygon fill="black" stroke="black" points="386.5,-647.71 390,-657.71 393.5,-647.71 386.5,-647.71"/>
<text text-anchor="middle" x="332.5" y="-630.51" font-family="arial" font-size="14.00">Controller outputs &#160;</text>
<text text-anchor="middle" x="332.5" y="-615.51" font-family="arial" font-size="14.00">(CO)</text>
</g>
<!-- controller&#45;&gt;model -->
<g id="edge11" class="edge">
<title>controller&#45;&gt;model</title>
<path fill="none" stroke="black" stroke-dasharray="1,5" d="M242.14,-512C242.14,-512 307.72,-512 307.72,-512"/>
<polygon fill="black" stroke="black" points="317.72,-512 307.72,-516.5 312.72,-512 307.72,-512 307.72,-512 307.72,-512 312.72,-512 307.72,-507.5 317.72,-512 317.72,-512"/>
<polygon fill="black" stroke="black" points="232.14,-512 242.14,-507.5 237.14,-512 242.14,-512 242.14,-512 242.14,-512 237.14,-512 242.14,-516.5 232.14,-512 232.14,-512"/>
</g>
<!-- action -->
<g id="node9" class="node">
<title>action</title>
<ellipse fill="none" stroke="black" stroke-dasharray="1,5" cx="160" cy="-329.43" rx="72" ry="37.45"/>
<text text-anchor="middle" x="160" y="-340.73" font-family="arial" font-size="14.00">Control</text>
<text text-anchor="middle" x="160" y="-325.73" font-family="arial" font-size="14.00">action</text>
<text text-anchor="middle" x="160" y="-310.73" font-family="arial" font-size="14.00">(A)</text>
</g>
<!-- controller&#45;&gt;action -->
<g id="edge4" class="edge">
<title>controller&#45;&gt;action</title>
<path fill="none" stroke="black" d="M160,-464.91C160,-452.31 160,-429.49 160,-410.26"/>
<polygon fill="black" stroke="black" points="163.5,-409.9 160,-399.9 156.5,-409.9 163.5,-409.9"/>
<text text-anchor="middle" x="116" y="-437.71" font-family="arial" font-size="14.00">Issued action &#160;</text>
<text text-anchor="middle" x="116" y="-422.71" font-family="arial" font-size="14.00">(iA) &#160;</text>
</g>
<!-- feedback -->
<g id="node10" class="node">
<title>feedback</title>
<ellipse fill="none" stroke="black" stroke-dasharray="1,5" cx="390" cy="-329.43" rx="72" ry="37.45"/>
<text text-anchor="middle" x="390" y="-340.73" font-family="arial" font-size="14.00">Feedback</text>
<text text-anchor="middle" x="390" y="-325.73" font-family="arial" font-size="14.00">(F)</text>
<text text-anchor="middle" x="390" y="-310.73" font-family="arial" font-size="14.00"> </text>
</g>
<!-- model&#45;&gt;feedback -->
<g id="edge6" class="edge">
<title>model&#45;&gt;feedback</title>
<path fill="none" stroke="black" d="M390,-464.48C390,-464.48 390,-428.2 390,-399.9"/>
<polygon fill="black" stroke="black" points="386.5,-454.91 390,-464.91 393.5,-454.91 386.5,-454.91"/>
<text text-anchor="middle" x="328.5" y="-437.71" font-family="arial" font-size="14.00">Received feedback &#160;</text>
<text text-anchor="middle" x="328.5" y="-422.71" font-family="arial" font-size="14.00">(rF)</text>
</g>
<!-- statep -->
<g id="node8" class="node">
<title>statep</title>
<ellipse fill="none" stroke="black" stroke-dasharray="1,5" cx="390" cy="-146.48" rx="72" ry="37.45"/>
<text text-anchor="middle" x="390" y="-157.78" font-family="arial" font-size="14.00">Process</text>
<text text-anchor="middle" x="390" y="-142.78" font-family="arial" font-size="14.00">state</text>
<text text-anchor="middle" x="390" y="-127.78" font-family="arial" font-size="14.00">(PS)</text>
</g>
<!-- controlled&#45;&gt;statep -->
<g id="edge12" class="edge">
<title>controlled&#45;&gt;statep</title>
<path fill="none" stroke="black" stroke-dasharray="1,5" d="M242.14,-146C242.14,-146 307.72,-146 307.72,-146"/>
<polygon fill="black" stroke="black" points="317.72,-146 307.72,-150.5 312.72,-146 307.72,-146 307.72,-146 307.72,-146 312.72,-146 307.72,-141.5 317.72,-146 317.72,-146"/>
<polygon fill="black" stroke="black" points="232.14,-146 242.14,-141.5 237.14,-146 242.14,-146 242.14,-146 242.14,-146 237.14,-146 242.14,-150.5 232.14,-146 232.14,-146"/>
</g>
<!-- outputp -->
<g id="node12" class="node">
<title>outputp</title>
</g>
<!-- controlled&#45;&gt;outputp -->
<g id="edge10" class="edge">
<title>controlled&#45;&gt;outputp</title>
<path fill="none" stroke="black" d="M160,-99C160,-74.19 160,-11.24 160,-11.24"/>
<polygon fill="black" stroke="black" points="163.5,-11.24 160,-1.24 156.5,-11.24 163.5,-11.24"/>
<text text-anchor="middle" x="131.5" y="-71.8" font-family="arial" font-size="14.00">Process &#160;</text>
<text text-anchor="middle" x="131.5" y="-56.8" font-family="arial" font-size="14.00">outputs</text>
<text text-anchor="middle" x="131.5" y="-41.8" font-family="arial" font-size="14.00"> (PO)</text>
</g>
<!-- inputp -->
<g id="node11" class="node">
<title>inputp</title>
</g>
<!-- statep&#45;&gt;inputp -->
<g id="edge9" class="edge">
<title>statep&#45;&gt;inputp</title>
<path fill="none" stroke="black" d="M390,-98.88C390,-98.88 390,-1.24 390,-1.24"/>
<polygon fill="black" stroke="black" points="386.51,-89 390,-99 393.51,-89 386.51,-89"/>
<text text-anchor="middle" x="361.5" y="-71.8" font-family="arial" font-size="14.00">Process &#160;</text>
<text text-anchor="middle" x="361.5" y="-56.8" font-family="arial" font-size="14.00">input(s)</text>
<text text-anchor="middle" x="361.5" y="-41.8" font-family="arial" font-size="14.00">(PI)</text>
</g>
<!-- action&#45;&gt;controlled -->
<g id="edge5" class="edge">
<title>action&#45;&gt;controlled</title>
<path fill="none" stroke="black" d="M160,-281.96C160,-271.65 160,-254.51 160,-238.08"/>
<polygon fill="black" stroke="black" points="163.5,-237.95 160,-227.95 156.5,-237.95 163.5,-237.95"/>
<text text-anchor="middle" x="108" y="-262.75" font-family="arial" font-size="14.00">Received action &#160;</text>
<text text-anchor="middle" x="108" y="-247.75" font-family="arial" font-size="14.00">(rA)</text>
</g>
<!-- feedback&#45;&gt;statep -->
<g id="edge7" class="edge">
<title>feedback&#45;&gt;statep</title>
<path fill="none" stroke="black" d="M390,-281.52C390,-281.52 390,-253.82 390,-227.95"/>
<polygon fill="black" stroke="black" points="386.5,-271.95 390,-281.95 393.5,-271.95 386.5,-271.95"/>
<text text-anchor="middle" x="337" y="-262.75" font-family="arial" font-size="14.00">Issued feedback &#160;</text>
<text text-anchor="middle" x="337" y="-247.75" font-family="arial" font-size="14.00">(iF) &#160;</text>
</g>
</g>
</svg>
